<svg xmlns="http://www.w3.org/2000/svg" viewBox="0 0 960 1200" font-family="'SF Mono','Menlo','Consolas',monospace" font-size="11">
  <title>JT200 Keyboard FPC Connector Pinout — Board 820-02757</title>
  <defs>
    <linearGradient id="gDrive" x1="0" y1="0" x2="1" y2="0">
      <stop offset="0%" stop-color="#2196F3" stop-opacity="0.15"/>
      <stop offset="100%" stop-color="#2196F3" stop-opacity="0.05"/>
    </linearGradient>
    <linearGradient id="gSense" x1="0" y1="0" x2="1" y2="0">
      <stop offset="0%" stop-color="#FF9800" stop-opacity="0.15"/>
      <stop offset="100%" stop-color="#FF9800" stop-opacity="0.05"/>
    </linearGradient>
    <linearGradient id="gBridge" x1="0" y1="0" x2="1" y2="0">
      <stop offset="0%" stop-color="#F44336" stop-opacity="0.25"/>
      <stop offset="100%" stop-color="#F44336" stop-opacity="0.08"/>
    </linearGradient>
  </defs>
  
  <!-- Background -->
  <rect width="960" height="1200" fill="#1a1a2e"/>
  
  <!-- Title -->
  <text x="480" y="32" fill="#e0e0e0" font-size="16" font-weight="bold" text-anchor="middle">JT200 — Keyboard FPC Connector Pinout (Board 820-02757)</text>
  <text x="480" y="52" fill="#888" font-size="11" text-anchor="middle">Decoded from 820-02757-06-boardview.brd — 36-pin ZIF, DRIVE/SENSE interleaved</text>
  
  <!-- Legend -->
  <rect x="30" y="68" width="14" height="14" fill="#2196F3" opacity="0.6" rx="2"/>
  <text x="50" y="80" fill="#90CAF9" font-size="10">DRIVE (Y row)</text>
  <rect x="160" y="68" width="14" height="14" fill="#FF9800" opacity="0.6" rx="2"/>
  <text x="180" y="80" fill="#FFE0B2" font-size="10">SENSE (X column)</text>
  <rect x="300" y="68" width="14" height="14" fill="#4CAF50" opacity="0.6" rx="2"/>
  <text x="320" y="80" fill="#C8E6C9" font-size="10">Power / GND / Other</text>
  <rect x="470" y="68" width="14" height="14" fill="#F44336" opacity="0.4" rx="2"/>
  <text x="490" y="80" fill="#FFCDD2" font-size="10">DRIVE↔SENSE boundary (bridging risk)</text>

  <!-- Connector body -->
  <rect x="60" y="95" width="840" height="1080" rx="8" fill="none" stroke="#555" stroke-width="1.5"/>
  <text x="480" y="112" fill="#666" font-size="10" text-anchor="middle">ZIF connector housing — FPC enters from left</text>

  <!-- Pin entries — each pin is a row -->
  <!-- Pin 1: GND -->
  <rect x="65" y="118" width="830" height="26" fill="#4CAF50" opacity="0.08" rx="3"/>
  <text x="82" y="136" fill="#81C784" font-size="12" font-weight="bold">1</text>
  <circle cx="110" cy="131" r="6" fill="#4CAF50" opacity="0.5"/>
  <text x="130" y="136" fill="#C8E6C9" font-size="11">GND</text>
  
  <!-- Pin 2: KBD_RIGHT_SHIFT_KEY -->
  <rect x="65" y="145" width="830" height="26" fill="#4CAF50" opacity="0.08" rx="3"/>
  <text x="82" y="163" fill="#81C784" font-size="12" font-weight="bold">2</text>
  <circle cx="110" cy="158" r="6" fill="#4CAF50" opacity="0.5"/>
  <text x="130" y="163" fill="#C8E6C9" font-size="11">KBD_RIGHT_SHIFT_KEY</text>
  <text x="880" y="163" fill="#888" font-size="9" text-anchor="end">dedicated modifier</text>

  <!-- Pin 3: PP1V825 -->
  <rect x="65" y="172" width="830" height="26" fill="#4CAF50" opacity="0.08" rx="3"/>
  <text x="82" y="190" fill="#81C784" font-size="12" font-weight="bold">3</text>
  <circle cx="110" cy="185" r="6" fill="#4CAF50" opacity="0.5"/>
  <text x="130" y="190" fill="#C8E6C9" font-size="11">PP1V825_S2_HOLD_KBD_ISNS</text>
  <text x="880" y="190" fill="#888" font-size="9" text-anchor="end">1.825V keyboard power</text>

  <!-- Pin 4: KBD_ID1 -->
  <rect x="65" y="199" width="830" height="26" fill="#4CAF50" opacity="0.08" rx="3"/>
  <text x="82" y="217" fill="#81C784" font-size="12" font-weight="bold">4</text>
  <circle cx="110" cy="212" r="6" fill="#4CAF50" opacity="0.5"/>
  <text x="130" y="217" fill="#C8E6C9" font-size="11">KBD_ID1</text>

  <!-- Pin 5: GND -->
  <rect x="65" y="226" width="830" height="26" fill="#4CAF50" opacity="0.08" rx="3"/>
  <text x="82" y="244" fill="#81C784" font-size="12" font-weight="bold">5</text>
  <circle cx="110" cy="239" r="6" fill="#4CAF50" opacity="0.5"/>
  <text x="130" y="244" fill="#C8E6C9" font-size="11">GND</text>
  
  <!-- Pin 6: KBD_ID2 -->
  <rect x="65" y="253" width="830" height="26" fill="#4CAF50" opacity="0.08" rx="3"/>
  <text x="82" y="271" fill="#81C784" font-size="12" font-weight="bold">6</text>
  <circle cx="110" cy="266" r="6" fill="#4CAF50" opacity="0.5"/>
  <text x="130" y="271" fill="#C8E6C9" font-size="11">KBD_ID2</text>

  <!-- SENSE group A: Pins 7-10 -->
  <rect x="65" y="280" width="830" height="26" fill="#FF9800" opacity="0.1" rx="3"/>
  <text x="82" y="298" fill="#FFE0B2" font-size="12" font-weight="bold">7</text>
  <circle cx="110" cy="293" r="6" fill="#FF9800" opacity="0.5"/>
  <text x="130" y="298" fill="#FFE0B2" font-size="11">KBD_SENSE_X7</text>
  <text x="880" y="298" fill="#FF9800" font-size="9" text-anchor="end">← SENSE group A starts</text>

  <rect x="65" y="307" width="830" height="26" fill="#FF9800" opacity="0.1" rx="3"/>
  <text x="82" y="325" fill="#FFE0B2" font-size="12" font-weight="bold">8</text>
  <circle cx="110" cy="320" r="6" fill="#FF9800" opacity="0.5"/>
  <text x="130" y="325" fill="#FFE0B2" font-size="11">KBD_SENSE_X11</text>

  <rect x="65" y="334" width="830" height="26" fill="#FF9800" opacity="0.1" rx="3"/>
  <text x="82" y="352" fill="#FFE0B2" font-size="12" font-weight="bold">9</text>
  <circle cx="110" cy="347" r="6" fill="#FF9800" opacity="0.5"/>
  <text x="130" y="352" fill="#FFE0B2" font-size="11">KBD_SENSE_X6</text>

  <!-- Pin 10: boundary -->
  <rect x="65" y="361" width="830" height="26" fill="#FF9800" opacity="0.1" rx="3"/>
  <text x="82" y="379" fill="#FFE0B2" font-size="12" font-weight="bold">10</text>
  <circle cx="110" cy="374" r="6" fill="#FF9800" opacity="0.5"/>
  <text x="130" y="379" fill="#FFE0B2" font-size="11">KBD_SENSE_X9</text>

  <!-- ⚠ BRIDGE RISK ZONE 1: Pin 10↔11 -->
  <rect x="62" y="386" width="836" height="6" fill="#F44336" opacity="0.5" rx="1"/>
  <text x="480" y="392" fill="#F44336" font-size="9" font-weight="bold" text-anchor="middle">▲ DRIVE↔SENSE BOUNDARY — BRIDGING RISK ▲</text>

  <!-- DRIVE group A: Pins 11-15 -->
  <rect x="65" y="396" width="830" height="26" fill="#2196F3" opacity="0.1" rx="3"/>
  <text x="82" y="414" fill="#90CAF9" font-size="12" font-weight="bold">11</text>
  <circle cx="110" cy="409" r="6" fill="#2196F3" opacity="0.5"/>
  <text x="130" y="414" fill="#90CAF9" font-size="11">KBD_DRIVE_Y0</text>
  <text x="880" y="414" fill="#2196F3" font-size="9" text-anchor="end">← DRIVE group A starts</text>

  <rect x="65" y="423" width="830" height="26" fill="#2196F3" opacity="0.1" rx="3"/>
  <text x="82" y="441" fill="#90CAF9" font-size="12" font-weight="bold">12</text>
  <circle cx="110" cy="436" r="6" fill="#2196F3" opacity="0.5"/>
  <text x="130" y="441" fill="#90CAF9" font-size="11">KBD_DRIVE_Y10</text>

  <rect x="65" y="450" width="830" height="26" fill="#2196F3" opacity="0.1" rx="3"/>
  <text x="82" y="468" fill="#90CAF9" font-size="12" font-weight="bold">13</text>
  <circle cx="110" cy="463" r="6" fill="#2196F3" opacity="0.5"/>
  <text x="130" y="468" fill="#90CAF9" font-size="11">KBD_DRIVE_Y2</text>

  <rect x="65" y="477" width="830" height="26" fill="#2196F3" opacity="0.1" rx="3"/>
  <text x="82" y="495" fill="#90CAF9" font-size="12" font-weight="bold">14</text>
  <circle cx="110" cy="490" r="6" fill="#2196F3" opacity="0.5"/>
  <text x="130" y="495" fill="#90CAF9" font-size="11">KBD_DRIVE_Y8</text>

  <!-- Pin 15: boundary -->
  <rect x="65" y="504" width="830" height="26" fill="#2196F3" opacity="0.1" rx="3"/>
  <text x="82" y="522" fill="#90CAF9" font-size="12" font-weight="bold">15</text>
  <circle cx="110" cy="517" r="6" fill="#2196F3" opacity="0.5"/>
  <text x="130" y="522" fill="#90CAF9" font-size="11">KBD_DRIVE_Y1</text>

  <!-- ⚠ BRIDGE RISK ZONE 2: Pin 15↔16 -->
  <rect x="62" y="529" width="836" height="6" fill="#F44336" opacity="0.5" rx="1"/>
  <text x="480" y="535" fill="#F44336" font-size="9" font-weight="bold" text-anchor="middle">▲ DRIVE↔SENSE BOUNDARY — BRIDGING RISK ▲</text>

  <!-- SENSE group B: Pins 16-24 -->
  <rect x="65" y="539" width="830" height="26" fill="#FF9800" opacity="0.1" rx="3"/>
  <text x="82" y="557" fill="#FFE0B2" font-size="12" font-weight="bold">16</text>
  <circle cx="110" cy="552" r="6" fill="#FF9800" opacity="0.5"/>
  <text x="130" y="557" fill="#FFE0B2" font-size="11">KBD_SENSE_X8</text>
  <text x="880" y="557" fill="#FF9800" font-size="9" text-anchor="end">← SENSE group B starts</text>

  <rect x="65" y="566" width="830" height="26" fill="#FF9800" opacity="0.1" rx="3"/>
  <text x="82" y="584" fill="#FFE0B2" font-size="12" font-weight="bold">17</text>
  <circle cx="110" cy="579" r="6" fill="#FF9800" opacity="0.5"/>
  <text x="130" y="584" fill="#FFE0B2" font-size="11">KBD_SENSE_X12</text>

  <rect x="65" y="593" width="830" height="26" fill="#FF9800" opacity="0.1" rx="3"/>
  <text x="82" y="611" fill="#FFE0B2" font-size="12" font-weight="bold">18</text>
  <circle cx="110" cy="606" r="6" fill="#FF9800" opacity="0.5"/>
  <text x="130" y="611" fill="#FFE0B2" font-size="11">KBD_SENSE_X10</text>

  <rect x="65" y="620" width="830" height="26" fill="#FF9800" opacity="0.1" rx="3"/>
  <text x="82" y="638" fill="#FFE0B2" font-size="12" font-weight="bold">19</text>
  <circle cx="110" cy="633" r="6" fill="#FF9800" opacity="0.5"/>
  <text x="130" y="638" fill="#FFE0B2" font-size="11">KBD_SENSE_X5</text>

  <rect x="65" y="647" width="830" height="26" fill="#FF9800" opacity="0.1" rx="3"/>
  <text x="82" y="665" fill="#FFE0B2" font-size="12" font-weight="bold">20</text>
  <circle cx="110" cy="660" r="6" fill="#FF9800" opacity="0.5"/>
  <text x="130" y="665" fill="#FFE0B2" font-size="11">KBD_SENSE_X4</text>

  <rect x="65" y="674" width="830" height="26" fill="#FF9800" opacity="0.1" rx="3"/>
  <text x="82" y="692" fill="#FFE0B2" font-size="12" font-weight="bold">21</text>
  <circle cx="110" cy="687" r="6" fill="#FF9800" opacity="0.5"/>
  <text x="130" y="692" fill="#FFE0B2" font-size="11">KBD_SENSE_X3</text>

  <rect x="65" y="701" width="830" height="26" fill="#FF9800" opacity="0.1" rx="3"/>
  <text x="82" y="719" fill="#FFE0B2" font-size="12" font-weight="bold">22</text>
  <circle cx="110" cy="714" r="6" fill="#FF9800" opacity="0.5"/>
  <text x="130" y="719" fill="#FFE0B2" font-size="11">KBD_SENSE_X1</text>

  <rect x="65" y="728" width="830" height="26" fill="#FF9800" opacity="0.1" rx="3"/>
  <text x="82" y="746" fill="#FFE0B2" font-size="12" font-weight="bold">23</text>
  <circle cx="110" cy="741" r="6" fill="#FF9800" opacity="0.5"/>
  <text x="130" y="746" fill="#FFE0B2" font-size="11">KBD_SENSE_X2</text>

  <!-- Pin 24: boundary -->
  <rect x="65" y="755" width="830" height="26" fill="#FF9800" opacity="0.1" rx="3"/>
  <text x="82" y="773" fill="#FFE0B2" font-size="12" font-weight="bold">24</text>
  <circle cx="110" cy="768" r="6" fill="#FF9800" opacity="0.5"/>
  <text x="130" y="773" fill="#FFE0B2" font-size="11">KBD_SENSE_X0</text>

  <!-- ⚠ BRIDGE RISK ZONE 3: Pin 24↔25 -->
  <rect x="62" y="780" width="836" height="6" fill="#F44336" opacity="0.5" rx="1"/>
  <text x="480" y="786" fill="#F44336" font-size="9" font-weight="bold" text-anchor="middle">▲ DRIVE↔SENSE BOUNDARY — BRIDGING RISK ▲</text>

  <!-- DRIVE group B: Pins 25-31 -->
  <rect x="65" y="790" width="830" height="26" fill="#2196F3" opacity="0.1" rx="3"/>
  <text x="82" y="808" fill="#90CAF9" font-size="12" font-weight="bold">25</text>
  <circle cx="110" cy="803" r="6" fill="#2196F3" opacity="0.5"/>
  <text x="130" y="808" fill="#90CAF9" font-size="11">KBD_DRIVE_Y11</text>
  <text x="880" y="808" fill="#2196F3" font-size="9" text-anchor="end">← DRIVE group B starts</text>

  <rect x="65" y="817" width="830" height="26" fill="#2196F3" opacity="0.1" rx="3"/>
  <text x="82" y="835" fill="#90CAF9" font-size="12" font-weight="bold">26</text>
  <circle cx="110" cy="830" r="6" fill="#2196F3" opacity="0.5"/>
  <text x="130" y="835" fill="#90CAF9" font-size="11">KBD_DRIVE_Y9</text>

  <rect x="65" y="844" width="830" height="26" fill="#2196F3" opacity="0.1" rx="3"/>
  <text x="82" y="862" fill="#90CAF9" font-size="12" font-weight="bold">27</text>
  <circle cx="110" cy="857" r="6" fill="#2196F3" opacity="0.5"/>
  <text x="130" y="862" fill="#90CAF9" font-size="11">KBD_DRIVE_Y3</text>

  <rect x="65" y="871" width="830" height="26" fill="#2196F3" opacity="0.1" rx="3"/>
  <text x="82" y="889" fill="#90CAF9" font-size="12" font-weight="bold">28</text>
  <circle cx="110" cy="884" r="6" fill="#2196F3" opacity="0.5"/>
  <text x="130" y="889" fill="#90CAF9" font-size="11">KBD_DRIVE_Y4</text>

  <rect x="65" y="898" width="830" height="26" fill="#2196F3" opacity="0.1" rx="3"/>
  <text x="82" y="916" fill="#90CAF9" font-size="12" font-weight="bold">29</text>
  <circle cx="110" cy="911" r="6" fill="#2196F3" opacity="0.5"/>
  <text x="130" y="916" fill="#90CAF9" font-size="11">KBD_DRIVE_Y5</text>

  <rect x="65" y="925" width="830" height="26" fill="#2196F3" opacity="0.1" rx="3"/>
  <text x="82" y="943" fill="#90CAF9" font-size="12" font-weight="bold">30</text>
  <circle cx="110" cy="938" r="6" fill="#2196F3" opacity="0.5"/>
  <text x="130" y="943" fill="#90CAF9" font-size="11">KBD_DRIVE_Y7</text>

  <rect x="65" y="952" width="830" height="26" fill="#2196F3" opacity="0.1" rx="3"/>
  <text x="82" y="970" fill="#90CAF9" font-size="12" font-weight="bold">31</text>
  <circle cx="110" cy="965" r="6" fill="#2196F3" opacity="0.5"/>
  <text x="130" y="970" fill="#90CAF9" font-size="11">KBD_DRIVE_Y6</text>

  <!-- Pins 32-36: other -->
  <rect x="65" y="979" width="830" height="26" fill="#4CAF50" opacity="0.08" rx="3"/>
  <text x="82" y="997" fill="#81C784" font-size="12" font-weight="bold">32</text>
  <circle cx="110" cy="992" r="6" fill="#4CAF50" opacity="0.5"/>
  <text x="130" y="997" fill="#C8E6C9" font-size="11">KBD_CAP_CATHODE</text>
  <text x="880" y="997" fill="#888" font-size="9" text-anchor="end">caps lock LED</text>

  <rect x="65" y="1006" width="830" height="26" fill="#4CAF50" opacity="0.08" rx="3"/>
  <text x="82" y="1024" fill="#81C784" font-size="12" font-weight="bold">33</text>
  <circle cx="110" cy="1019" r="6" fill="#4CAF50" opacity="0.5"/>
  <text x="130" y="1024" fill="#C8E6C9" font-size="11">PP3V3_AON_KBD_CONN</text>
  <text x="880" y="1024" fill="#888" font-size="9" text-anchor="end">3.3V always-on power</text>

  <rect x="65" y="1033" width="830" height="26" fill="#4CAF50" opacity="0.08" rx="3"/>
  <text x="82" y="1051" fill="#81C784" font-size="12" font-weight="bold">34</text>
  <circle cx="110" cy="1046" r="6" fill="#4CAF50" opacity="0.5"/>
  <text x="130" y="1051" fill="#C8E6C9" font-size="11">KBD_LEFT_OPTION_KEY</text>
  <text x="880" y="1051" fill="#888" font-size="9" text-anchor="end">dedicated modifier</text>

  <rect x="65" y="1060" width="830" height="26" fill="#4CAF50" opacity="0.08" rx="3"/>
  <text x="82" y="1078" fill="#81C784" font-size="12" font-weight="bold">35</text>
  <circle cx="110" cy="1073" r="6" fill="#4CAF50" opacity="0.5"/>
  <text x="130" y="1078" fill="#C8E6C9" font-size="11">KBD_CONTROL_KEY</text>
  <text x="880" y="1078" fill="#888" font-size="9" text-anchor="end">dedicated modifier</text>

  <rect x="65" y="1087" width="830" height="26" fill="#4CAF50" opacity="0.08" rx="3"/>
  <text x="82" y="1105" fill="#81C784" font-size="12" font-weight="bold">36</text>
  <circle cx="110" cy="1100" r="6" fill="#4CAF50" opacity="0.5"/>
  <text x="130" y="1105" fill="#C8E6C9" font-size="11">GND</text>

  <!-- Group labels on right side -->
  <rect x="885" y="280" width="4" height="108" fill="#FF9800" opacity="0.6" rx="2"/>
  <text x="894" y="340" fill="#FF9800" font-size="9" transform="rotate(90,894,340)">SENSE A</text>

  <rect x="885" y="396" width="4" height="136" fill="#2196F3" opacity="0.6" rx="2"/>
  <text x="894" y="470" fill="#2196F3" font-size="9" transform="rotate(90,894,470)">DRIVE A</text>

  <rect x="885" y="539" width="4" height="243" fill="#FF9800" opacity="0.6" rx="2"/>
  <text x="894" y="665" fill="#FF9800" font-size="9" transform="rotate(90,894,665)">SENSE B</text>

  <rect x="885" y="790" width="4" height="189" fill="#2196F3" opacity="0.6" rx="2"/>
  <text x="894" y="890" fill="#2196F3" font-size="9" transform="rotate(90,894,890)">DRIVE B</text>

  <!-- Footer analysis -->
  <text x="480" y="1140" fill="#e0e0e0" font-size="11" text-anchor="middle" font-weight="bold">Key finding: DRIVE and SENSE lines are INTERLEAVED on the FPC, not grouped separately.</text>
  <text x="480" y="1158" fill="#FFCDD2" font-size="11" text-anchor="middle">Three DRIVE↔SENSE boundaries (pins 10↔11, 15↔16, 24↔25) are adjacent-trace bridging risk points.</text>
  <text x="480" y="1176" fill="#aaa" font-size="10" text-anchor="middle">Contamination at any of these boundaries explains the observed unidirectional ghost keypresses.</text>
  <text x="480" y="1194" fill="#666" font-size="9" text-anchor="middle">Source: diagrams/820-02757-06-boardview.brd decoded via ~((b&gt;&gt;6)|(b&lt;&lt;2)) per OpenBoardView .brd format</text>
</svg>
